<svg width="50" height="50" viewBox="0 0 50 50" fill="none" xmlns="http://www.w3.org/2000/svg">
<g clip-path="url(#clip0)">
<path d="M25 -0.125C11.146 -0.125 -0.125 11.146 -0.125 25C-0.125 38.854 11.146 50.125 25 50.125C38.854 50.125 50.125 38.854 50.125 25C50.125 11.146 38.854 -0.125 25 -0.125ZM25 48.2083C12.2032 48.2083 1.7917 37.7968 1.7917 25C1.7917 12.2032 12.2032 1.7917 25 1.7917C37.7968 1.7917 48.2083 12.2032 48.2083 25C48.2083 37.7968 37.7968 48.2083 25 48.2083Z" fill="#446D91" stroke="#446D91" stroke-width="0.25"/>
<path d="M45.6628 21.5076L45.6629 21.5079C45.7089 21.7855 45.6313 22.07 45.4492 22.2856C45.2671 22.5013 44.9996 22.625 44.7179 22.625H44.1662C42.8569 22.625 41.7912 23.6907 41.7912 25C41.7912 26.3092 42.8569 27.375 44.1662 27.375H44.7179C44.9996 27.375 45.267 27.4986 45.4493 27.7143L45.4493 27.7143C45.6314 27.9299 45.709 28.2136 45.663 28.492L45.6629 28.4923C44.1866 37.2866 37.2863 44.1878 28.492 45.6633L28.4909 45.6635C28.4389 45.6717 28.3864 45.6766 28.3329 45.6766C28.1076 45.6766 27.8882 45.5971 27.7139 45.4497C27.4982 45.2675 27.3745 45 27.3745 44.7183V44.1667C27.3745 42.8574 26.3088 41.7917 24.9995 41.7917C23.6902 41.7917 22.6245 42.8574 22.6245 44.1667V44.7183C22.6245 45 22.5009 45.2674 22.2853 45.4496M45.6628 21.5076L21.5278 45.54L21.5066 45.6632C21.5067 45.6632 21.5068 45.6632 21.5069 45.6632C21.7853 45.7112 22.0699 45.6324 22.2853 45.4496M45.6628 21.5076C44.1873 12.7133 37.2862 5.81295 28.4919 4.33665L28.4916 4.3366M45.6628 21.5076L28.4916 4.3366M22.2853 45.4496C22.2852 45.4496 22.2852 45.4496 22.2851 45.4497L22.2045 45.3542L22.2854 45.4495C22.2854 45.4495 22.2853 45.4495 22.2853 45.4496ZM28.4916 4.3366C28.2134 4.29067 27.9296 4.36715 27.7136 4.55047C27.4981 4.73261 27.3745 5.00002 27.3745 5.28161V5.83327C27.3745 7.14255 26.3088 8.20827 24.9995 8.20827C23.6902 8.20827 22.6245 7.14255 22.6245 5.83327V5.28161C22.6245 4.99995 22.5009 4.73254 22.2862 4.55044L22.2861 4.55029M28.4916 4.3366L22.2861 4.55029M22.2861 4.55029C22.0697 4.36747 21.7861 4.28973 21.508 4.33665L22.2861 4.55029ZM34.7182 41.3791C33.3744 42.1763 31.7942 41.827 30.1019 41.2471C29.7679 41.1326 29.4278 41.0086 29.0856 40.8838C28.5725 40.6966 28.0544 40.5076 27.5441 40.3463C26.6886 40.076 25.8313 39.875 24.9995 39.875C24.1678 39.875 23.3105 40.076 22.4549 40.3463C21.9446 40.5076 21.4266 40.6966 20.9135 40.8838C20.5712 41.0086 20.2312 41.1326 19.8971 41.2471C18.2049 41.827 16.6247 42.1763 15.2808 41.3791C12.5402 39.7531 10.2466 37.4597 8.62041 34.7191C7.823 33.3752 8.17234 31.7949 8.75226 30.1027C8.86674 29.7686 8.9908 29.4285 9.11566 29.0862C9.30283 28.5731 9.49181 28.055 9.6531 27.5447C9.92352 26.6891 10.1245 25.8317 10.1245 25C10.1245 24.1682 9.92351 23.3108 9.65309 22.4552C9.49181 21.9449 9.30283 21.4268 9.11566 20.9137C8.99079 20.5714 8.86673 20.2313 8.75224 19.8972C8.17232 18.205 7.82301 16.6247 8.62048 15.2808C10.2467 12.5403 12.5404 10.2469 15.2809 8.62102C16.6247 7.82374 18.2049 8.17303 19.8971 8.75288C20.2312 8.86735 20.5713 8.99139 20.9135 9.11624C21.4266 9.30338 21.9447 9.49234 22.4549 9.65361C23.3105 9.92399 24.1678 10.125 24.9995 10.125C25.8313 10.125 26.6886 9.92398 27.5441 9.65359C28.0544 9.49231 28.5725 9.30334 29.0856 9.11618C29.4278 8.99133 29.7679 8.86729 30.1019 8.75282C31.7942 8.17294 33.3744 7.8236 34.7182 8.62088C37.459 10.2469 39.7526 12.5405 41.3786 15.2813C42.1758 16.6251 41.8265 18.2053 41.2467 19.8976C41.1322 20.2316 41.0081 20.5716 40.8833 20.9139C40.6961 21.427 40.5072 21.9451 40.3459 22.4554C40.0755 23.3109 39.8745 24.1682 39.8745 25C39.8745 25.8317 40.0755 26.689 40.3459 27.5446C40.5072 28.0548 40.6961 28.5729 40.8833 29.086C41.0081 29.4282 41.1322 29.7683 41.2467 30.1024C41.8266 31.7946 42.1759 33.3748 41.3786 34.7187C39.7526 37.4594 37.459 39.7531 34.7182 41.3791Z" fill="#446D91" stroke="#446D91" stroke-width="0.25"/>
<path d="M15 14.875C14.471 14.875 14.0417 15.3043 14.0417 15.8333V18.3333C14.0417 18.8623 14.471 19.2916 15 19.2916C15.529 19.2916 15.9583 18.8623 15.9583 18.3333V15.8333C15.9583 15.3043 15.529 14.875 15 14.875Z" fill="#446D91" stroke="#446D91" stroke-width="0.25"/>
<path d="M18.3334 14.875C17.8044 14.875 17.3751 15.3043 17.3751 15.8333V18.3333C17.3751 18.8623 17.8044 19.2916 18.3334 19.2916C18.8624 19.2916 19.2917 18.8623 19.2917 18.3333V15.8333C19.2917 15.8333 19.2917 15.8333 19.2917 15.8333C19.2918 15.3043 18.8624 14.875 18.3334 14.875Z" fill="#446D91" stroke="#446D91" stroke-width="0.25"/>
<path d="M18.3333 22.375H15C14.471 22.375 14.0417 22.8043 14.0417 23.3333C14.0417 23.8623 14.471 24.2916 15 24.2916H18.3333C18.8623 24.2916 19.2916 23.8623 19.2916 23.3333C19.2916 22.8043 18.8624 22.375 18.3333 22.375Z" fill="#446D91" stroke="#446D91" stroke-width="0.25"/>
<path d="M15 25.7083H18.3333C18.8623 25.7083 19.2917 26.1376 19.2916 26.6666L15 25.7083ZM15 25.7083C14.471 25.7083 14.0417 26.1376 14.0417 26.6666M15 25.7083L14.0417 26.6666M14.0417 26.6666C14.0417 27.1956 14.471 27.6249 15 27.6249M14.0417 26.6666L15 27.6249M15 27.6249H18.3333M15 27.6249H18.3333M18.3333 27.6249C18.8622 27.6249 19.2915 27.1956 19.2916 26.6666L18.3333 27.6249Z" fill="#446D91" stroke="#446D91" stroke-width="0.25"/>
<path d="M23.3333 14.875C22.8043 14.875 22.375 15.3043 22.375 15.8333V18.3333C22.375 18.8623 22.8043 19.2916 23.3333 19.2916C23.8623 19.2916 24.2916 18.8623 24.2916 18.3333V15.8333C24.2916 15.8333 24.2916 15.8333 24.2916 15.8333C24.2917 15.3043 23.8623 14.875 23.3333 14.875Z" fill="#446D91" stroke="#446D91" stroke-width="0.25"/>
<path d="M26.6668 14.875C26.1378 14.875 25.7085 15.3043 25.7085 15.8333V18.3333C25.7085 18.8623 26.1378 19.2916 26.6668 19.2916C27.1957 19.2916 27.6251 18.8623 27.6251 18.3333V15.8333C27.6251 15.3043 27.1957 14.875 26.6668 14.875Z" fill="#446D91" stroke="#446D91" stroke-width="0.25"/>
<path d="M26.6666 22.375H23.3333C22.8043 22.375 22.375 22.8043 22.375 23.3333C22.375 23.8623 22.8043 24.2916 23.3333 24.2916H26.6666C27.1956 24.2916 27.6249 23.8623 27.6249 23.3333C27.6249 22.8043 27.1956 22.375 26.6666 22.375Z" fill="#446D91" stroke="#446D91" stroke-width="0.25"/>
<path d="M26.6666 25.7083H23.3333C22.8043 25.7083 22.375 26.1376 22.375 26.6666C22.375 27.1956 22.8043 27.6249 23.3333 27.6249H26.6666C27.1956 27.6249 27.6249 27.1956 27.6249 26.6666C27.6249 26.1376 27.1956 25.7083 26.6666 25.7083Z" fill="#446D91" stroke="#446D91" stroke-width="0.25"/>
<path d="M15 30.7083C14.471 30.7083 14.0417 31.1376 14.0417 31.6666V34.1666C14.0417 34.6956 14.471 35.1249 15 35.1249C15.529 35.1249 15.9583 34.6956 15.9583 34.1666V31.6666C15.9583 31.1376 15.529 30.7083 15 30.7083Z" fill="#446D91" stroke="#446D91" stroke-width="0.25"/>
<path d="M18.3334 30.7083C17.8044 30.7083 17.3751 31.1376 17.3751 31.6666V34.1666C17.3751 34.6956 17.8044 35.1249 18.3334 35.1249C18.8624 35.1249 19.2917 34.6956 19.2917 34.1666V31.6666C19.2917 31.6666 19.2917 31.6666 19.2917 31.6666C19.2918 31.1376 18.8624 30.7083 18.3334 30.7083Z" fill="#446D91" stroke="#446D91" stroke-width="0.25"/>
<path d="M23.3333 30.7083C22.8043 30.7083 22.375 31.1376 22.375 31.6666V34.1666C22.375 34.6956 22.8043 35.1249 23.3333 35.1249C23.8623 35.1249 24.2916 34.6956 24.2916 34.1666V31.6666C24.2916 31.6666 24.2916 31.6666 24.2916 31.6666C24.2917 31.1376 23.8623 30.7083 23.3333 30.7083Z" fill="#446D91" stroke="#446D91" stroke-width="0.25"/>
<path d="M26.6668 30.7083C26.1378 30.7083 25.7085 31.1376 25.7085 31.6666V34.1666C25.7085 34.6956 26.1378 35.1249 26.6668 35.1249C27.1957 35.1249 27.6251 34.6956 27.6251 34.1666V31.6666C27.6251 31.1376 27.1957 30.7083 26.6668 30.7083Z" fill="#446D91" stroke="#446D91" stroke-width="0.25"/>
<path d="M31.6667 14.875C31.1377 14.875 30.7084 15.3043 30.7084 15.8333V18.3333C30.7084 18.8623 31.1377 19.2916 31.6667 19.2916C32.1957 19.2916 32.625 18.8623 32.625 18.3333V15.8333C32.625 15.3043 32.1957 14.875 31.6667 14.875Z" fill="#446D91" stroke="#446D91" stroke-width="0.25"/>
<path d="M35.0001 14.875C34.4711 14.875 34.0418 15.3043 34.0418 15.8333V18.3333C34.0418 18.8623 34.4711 19.2916 35.0001 19.2916C35.5291 19.2916 35.9584 18.8623 35.9584 18.3333V15.8333C35.9584 15.3043 35.5291 14.875 35.0001 14.875Z" fill="#446D91" stroke="#446D91" stroke-width="0.25"/>
<path d="M35 22.375H31.6667C31.1377 22.375 30.7084 22.8043 30.7084 23.3333C30.7084 23.8623 31.1377 24.2916 31.6667 24.2916H35C35.529 24.2916 35.9583 23.8623 35.9583 23.3333C35.9583 22.8043 35.529 22.375 35 22.375Z" fill="#446D91" stroke="#446D91" stroke-width="0.25"/>
<path d="M35 25.7083H31.6667C31.1377 25.7083 30.7084 26.1376 30.7084 26.6666C30.7084 27.1956 31.1377 27.6249 31.6667 27.6249H35C35.529 27.6249 35.9583 27.1956 35.9583 26.6666C35.9583 26.1376 35.529 25.7083 35 25.7083Z" fill="#446D91" stroke="#446D91" stroke-width="0.25"/>
<path d="M31.6667 30.7083C31.1377 30.7083 30.7084 31.1376 30.7084 31.6666V34.1666C30.7084 34.6956 31.1377 35.1249 31.6667 35.1249C32.1957 35.1249 32.625 34.6956 32.625 34.1666V31.6666C32.625 31.1376 32.1957 30.7083 31.6667 30.7083Z" fill="#446D91" stroke="#446D91" stroke-width="0.25"/>
<path d="M35.0001 30.7083C34.4711 30.7083 34.0418 31.1376 34.0418 31.6666V34.1666C34.0418 34.6956 34.4711 35.1249 35.0001 35.1249C35.5291 35.1249 35.9584 34.6956 35.9584 34.1666V31.6666C35.9584 31.1376 35.5291 30.7083 35.0001 30.7083Z" fill="#446D91" stroke="#446D91" stroke-width="0.25"/>
</g>
<defs>
<clipPath id="clip0">
<rect width="50" height="50" fill="white"/>
</clipPath>
</defs>
</svg>
