<svg width="51" height="50" viewBox="0 0 51 50" fill="none" xmlns="http://www.w3.org/2000/svg">
<g clip-path="url(#clip0)">
<path d="M25.4907 -0.125C11.7092 -0.125 0.498352 11.1466 0.498352 25C0.498352 38.8534 11.7092 50.125 25.4907 50.125C39.2722 50.125 50.4831 38.8534 50.4831 25C50.4831 11.1466 39.2722 -0.125 25.4907 -0.125ZM25.4907 48.2083C12.7628 48.2083 2.40621 37.7974 2.40621 25C2.40621 12.2026 12.7628 1.7917 25.4907 1.7917C38.2186 1.7917 48.5752 12.2026 48.5752 25C48.5752 37.7974 38.2186 48.2083 25.4907 48.2083Z" fill="#446D91" stroke="#446D91" stroke-width="0.25"/>
<path d="M46.0446 21.5077L46.0447 21.5079C46.0904 21.7854 46.0133 22.0697 45.8322 22.2853C45.651 22.5011 45.3847 22.6249 45.104 22.6249H44.5553C43.2539 22.6249 42.1935 23.69 42.1935 24.9999C42.1935 26.3098 43.2539 27.3749 44.5553 27.3749H45.104C45.3847 27.3749 45.6509 27.4988 45.8322 27.7145L45.8323 27.7146C46.0134 27.9302 46.0905 28.2137 46.0448 28.4919L46.0447 28.4922C44.5763 37.2861 37.7127 44.1876 28.9644 45.6632L28.9633 45.6634C28.9116 45.6717 28.8592 45.6766 28.806 45.6766C28.5815 45.6766 28.3629 45.5969 28.1895 45.4493M46.0446 21.5077L28.2704 45.3541M46.0446 21.5077C44.577 12.7137 37.7126 5.81305 28.9643 4.33664L28.964 4.33658C28.687 4.2906 28.4044 4.36718 28.1895 4.5505M46.0446 21.5077L28.9435 4.4599C28.7023 4.41986 28.457 4.48656 28.2704 4.64574M28.1895 45.4493L28.2704 45.3541M28.1895 45.4493C28.1895 45.4494 28.1895 45.4494 28.1896 45.4494L28.2704 45.3541M28.1895 45.4493C27.9748 45.2671 27.852 44.9997 27.852 44.7183V44.1666C27.852 42.8567 26.7916 41.7916 25.4903 41.7916C24.1889 41.7916 23.1285 42.8567 23.1285 44.1666V44.7183C23.1285 44.9996 23.0057 45.267 22.7912 45.4492M28.2704 45.3541C28.0839 45.1958 27.977 44.9633 27.977 44.7183V44.1666C27.977 42.7883 26.8613 41.6666 25.4903 41.6666C24.1192 41.6666 23.0035 42.7883 23.0035 44.1666V44.7183C23.0035 44.9633 22.8966 45.1958 22.7101 45.3541M22.7912 45.4492L22.7101 45.3541M22.7912 45.4492C22.5768 45.6322 22.2933 45.7112 22.0159 45.6632M22.7912 45.4492C22.7911 45.4493 22.791 45.4494 22.791 45.4494L22.7101 45.3541M22.7101 45.3541L22.0159 45.6632M22.0159 45.6632C13.2679 44.1867 6.40351 37.286 4.93511 28.4922L4.93507 28.4919C4.88935 28.2145 4.96646 27.9302 5.14753 27.7146L5.14773 27.7143C5.32962 27.4988 5.5958 27.3749 5.8765 27.3749H6.42524C7.72658 27.3749 8.78697 26.3098 8.78697 24.9999C8.78697 23.69 7.72658 22.6249 6.42524 22.6249H5.8765C5.59585 22.6249 5.32953 22.5011 5.14831 22.2853C4.96725 22.0697 4.89014 21.7862 4.93583 21.508L4.93589 21.5077C6.4044 12.7138 13.2688 5.81226 22.0171 4.33664M22.0159 45.6632L22.0379 4.4599M22.0159 45.6632C22.0158 45.6632 22.0157 45.6632 22.0156 45.6631L22.037 45.54L22.0162 45.6632C22.0161 45.6632 22.016 45.6632 22.0159 45.6632ZM22.0171 4.33664L22.0379 4.4599M22.0171 4.33664C22.017 4.33664 22.017 4.33665 22.0169 4.33666L22.0379 4.4599M22.0171 4.33664C22.2941 4.28965 22.5765 4.36754 22.7919 4.55047L22.792 4.55062C23.0057 4.73281 23.1285 5.00016 23.1285 5.28158V5.83324C23.1285 7.14315 24.1889 8.20824 25.4903 8.20824C26.7916 8.20824 27.852 7.14315 27.852 5.83324V5.28158C27.852 5.00016 27.9748 4.73272 28.1895 4.5505M22.0379 4.4599C22.2783 4.41907 22.5236 4.48656 22.7109 4.64574C22.8966 4.80404 23.0035 5.03656 23.0035 5.28158V5.83324C23.0035 7.21156 24.1192 8.33324 25.4903 8.33324C26.8613 8.33324 27.977 7.21156 27.977 5.83324V5.28158C27.977 5.03656 28.0839 4.80404 28.2704 4.64574M28.1895 4.5505C28.1894 4.55055 28.1894 4.5506 28.1893 4.55066L28.2704 4.64574M28.1895 4.5505C28.1895 4.55048 28.1895 4.55046 28.1896 4.55044L28.2704 4.64574M35.1657 41.3739C33.8292 42.172 32.2571 41.8242 30.5725 41.2453C30.2398 41.131 29.901 41.0071 29.56 40.8823C29.0493 40.6955 28.5336 40.5069 28.0256 40.3458C27.1734 40.0758 26.3193 39.8749 25.4903 39.8749C24.6612 39.8749 23.8071 40.0758 22.9549 40.3458C22.4469 40.5069 21.9312 40.6955 21.4205 40.8823C21.0795 41.0071 20.7407 41.131 20.408 41.2453C18.7234 41.8242 17.1514 42.172 15.8148 41.3739C13.0898 39.7466 10.8096 37.452 9.19351 34.7104C8.40138 33.3667 8.75022 31.7868 9.32809 30.0959C9.4421 29.7623 9.5656 29.4228 9.68989 29.0811C9.87642 28.5683 10.0647 28.0506 10.2254 27.5407C10.4947 26.6862 10.6948 25.8301 10.6948 24.9999C10.6948 24.1697 10.4947 23.3137 10.2254 22.4592C10.0647 21.9493 9.87641 21.4316 9.68989 20.9188C9.5656 20.5771 9.44209 20.2375 9.32808 19.9039C8.75021 18.213 8.40139 16.6332 9.19357 15.2894C10.8098 12.548 13.09 10.2534 15.8149 8.62613C17.1514 7.82796 18.7234 8.17578 20.408 8.75459C20.7408 8.86892 21.0796 8.99285 21.4206 9.1176C21.9313 9.3044 22.447 9.49304 22.9549 9.65404C23.8071 9.92412 24.6613 10.1249 25.4903 10.1249C26.3193 10.1249 27.1734 9.92411 28.0256 9.65402C28.5336 9.49301 29.0493 9.30435 29.56 9.11754C29.901 8.99278 30.2398 8.86885 30.5725 8.75453C32.2571 8.17568 33.8292 7.82783 35.1657 8.62599C37.8908 10.2534 40.171 12.5481 41.7869 15.2899C42.5789 16.6336 42.2301 18.2134 41.6523 19.9042C41.5383 20.2378 41.4148 20.5773 41.2905 20.9189C41.104 21.4317 40.9157 21.9495 40.755 22.4594C40.4858 23.3138 40.2857 24.1698 40.2857 24.9999C40.2857 25.8301 40.4858 26.6861 40.755 27.5405C40.9157 28.0504 41.104 28.5681 41.2906 29.0809C41.4148 29.4226 41.5383 29.7621 41.6523 30.0957C42.2301 31.7865 42.579 33.3663 41.787 34.71C40.171 37.4518 37.8908 39.7465 35.1657 41.3739Z" fill="#446D91" stroke="#446D91" stroke-width="0.25"/>
<path d="M15.5437 14.875C15.0165 14.875 14.5898 15.3049 14.5898 15.8333V18.3333C14.5898 18.8617 15.0165 19.2916 15.5437 19.2916C16.0709 19.2916 16.4976 18.8617 16.4976 18.3333V15.8333C16.4976 15.3049 16.0709 14.875 15.5437 14.875Z" fill="#446D91" stroke="#446D91" stroke-width="0.25"/>
<path d="M18.8595 14.875C18.3323 14.875 17.9056 15.3049 17.9056 15.8333V18.3333C17.9056 18.8617 18.3323 19.2916 18.8595 19.2916C19.3866 19.2916 19.8133 18.8617 19.8133 18.3333V15.8333C19.8133 15.8333 19.8133 15.8333 19.8133 15.8333C19.8134 15.3049 19.3867 14.875 18.8595 14.875Z" fill="#446D91" stroke="#446D91" stroke-width="0.25"/>
<path d="M18.8593 22.375H15.5437C15.0165 22.375 14.5898 22.8049 14.5898 23.3333C14.5898 23.8617 15.0165 24.2916 15.5437 24.2916H18.8593C19.3865 24.2916 19.8132 23.8617 19.8132 23.3333C19.8132 22.8049 19.3866 22.375 18.8593 22.375Z" fill="#446D91" stroke="#446D91" stroke-width="0.25"/>
<path d="M15.5437 25.7083H18.8593C19.3866 25.7083 19.8133 26.1382 19.8132 26.6666L15.5437 25.7083ZM15.5437 25.7083C15.0165 25.7083 14.5898 26.1382 14.5898 26.6666M15.5437 25.7083L14.5898 26.6666M14.5898 26.6666C14.5898 27.195 15.0165 27.6249 15.5437 27.6249M14.5898 26.6666L15.5437 27.6249M15.5437 27.6249H18.8593M15.5437 27.6249H18.8593M18.8593 27.6249C19.3865 27.6249 19.8132 27.195 19.8132 26.6666L18.8593 27.6249Z" fill="#446D91" stroke="#446D91" stroke-width="0.25"/>
<path d="M23.8328 14.875C23.3056 14.875 22.8789 15.3049 22.8789 15.8333V18.3333C22.8789 18.8617 23.3056 19.2916 23.8328 19.2916C24.36 19.2916 24.7867 18.8617 24.7867 18.3333V15.8333C24.7867 15.8333 24.7867 15.8333 24.7867 15.8333C24.7868 15.3049 24.3601 14.875 23.8328 14.875Z" fill="#446D91" stroke="#446D91" stroke-width="0.25"/>
<path d="M27.1486 14.875C26.6215 14.875 26.1948 15.3049 26.1948 15.8333V18.3333C26.1948 18.8617 26.6215 19.2916 27.1486 19.2916C27.6758 19.2916 28.1025 18.8617 28.1025 18.3333V15.8333C28.1025 15.3049 27.6758 14.875 27.1486 14.875Z" fill="#446D91" stroke="#446D91" stroke-width="0.25"/>
<path d="M27.1485 22.375H23.8329C23.3057 22.375 22.879 22.8049 22.879 23.3333C22.879 23.8617 23.3057 24.2916 23.8329 24.2916H27.1485C27.6757 24.2916 28.1024 23.8617 28.1024 23.3333C28.1024 22.8049 27.6757 22.375 27.1485 22.375Z" fill="#446D91" stroke="#446D91" stroke-width="0.25"/>
<path d="M27.1485 25.7083H23.8329C23.3057 25.7083 22.879 26.1382 22.879 26.6666C22.879 27.195 23.3057 27.6249 23.8329 27.6249H27.1485C27.6757 27.6249 28.1024 27.195 28.1024 26.6666C28.1024 26.1382 27.6757 25.7083 27.1485 25.7083Z" fill="#446D91" stroke="#446D91" stroke-width="0.25"/>
<path d="M15.5437 30.7083C15.0165 30.7083 14.5898 31.1382 14.5898 31.6666V34.1666C14.5898 34.695 15.0165 35.1249 15.5437 35.1249C16.0709 35.1249 16.4976 34.695 16.4976 34.1666V31.6666C16.4976 31.1382 16.0709 30.7083 15.5437 30.7083Z" fill="#446D91" stroke="#446D91" stroke-width="0.25"/>
<path d="M18.8595 30.7083C18.3323 30.7083 17.9056 31.1382 17.9056 31.6666V34.1666C17.9056 34.695 18.3323 35.1249 18.8595 35.1249C19.3866 35.1249 19.8133 34.695 19.8133 34.1666V31.6666C19.8133 31.6666 19.8133 31.6666 19.8133 31.6666C19.8134 31.1382 19.3867 30.7083 18.8595 30.7083Z" fill="#446D91" stroke="#446D91" stroke-width="0.25"/>
<path d="M23.8328 30.7083C23.3056 30.7083 22.8789 31.1382 22.8789 31.6666V34.1666C22.8789 34.695 23.3056 35.1249 23.8328 35.1249C24.36 35.1249 24.7867 34.695 24.7867 34.1666V31.6666C24.7867 31.6666 24.7867 31.6666 24.7867 31.6666C24.7868 31.1382 24.3601 30.7083 23.8328 30.7083Z" fill="#446D91" stroke="#446D91" stroke-width="0.25"/>
<path d="M27.1486 30.7083C26.6215 30.7083 26.1948 31.1382 26.1948 31.6666V34.1666C26.1948 34.695 26.6215 35.1249 27.1486 35.1249C27.6758 35.1249 28.1025 34.695 28.1025 34.1666V31.6666C28.1025 31.1382 27.6758 30.7083 27.1486 30.7083Z" fill="#446D91" stroke="#446D91" stroke-width="0.25"/>
<path d="M32.122 14.875C31.5948 14.875 31.1681 15.3049 31.1681 15.8333V18.3333C31.1681 18.8617 31.5948 19.2916 32.122 19.2916C32.6492 19.2916 33.0759 18.8617 33.0759 18.3333V15.8333C33.0759 15.3049 32.6492 14.875 32.122 14.875Z" fill="#446D91" stroke="#446D91" stroke-width="0.25"/>
<path d="M35.4377 14.875C34.9106 14.875 34.4839 15.3049 34.4839 15.8333V18.3333C34.4839 18.8617 34.9106 19.2916 35.4377 19.2916C35.9649 19.2916 36.3916 18.8617 36.3916 18.3333V15.8333C36.3916 15.3049 35.9649 14.875 35.4377 14.875Z" fill="#446D91" stroke="#446D91" stroke-width="0.25"/>
<path d="M35.4376 22.375H32.122C31.5948 22.375 31.1681 22.8049 31.1681 23.3333C31.1681 23.8617 31.5948 24.2916 32.122 24.2916H35.4376C35.9648 24.2916 36.3915 23.8617 36.3915 23.3333C36.3915 22.8049 35.9648 22.375 35.4376 22.375Z" fill="#446D91" stroke="#446D91" stroke-width="0.25"/>
<path d="M35.4376 25.7083H32.122C31.5948 25.7083 31.1681 26.1382 31.1681 26.6666C31.1681 27.195 31.5948 27.6249 32.122 27.6249H35.4376C35.9648 27.6249 36.3915 27.195 36.3915 26.6666C36.3915 26.1382 35.9648 25.7083 35.4376 25.7083Z" fill="#446D91" stroke="#446D91" stroke-width="0.25"/>
<path d="M32.122 30.7083C31.5948 30.7083 31.1681 31.1382 31.1681 31.6666V34.1666C31.1681 34.695 31.5948 35.1249 32.122 35.1249C32.6492 35.1249 33.0759 34.695 33.0759 34.1666V31.6666C33.0759 31.1382 32.6492 30.7083 32.122 30.7083Z" fill="#446D91" stroke="#446D91" stroke-width="0.25"/>
<path d="M35.4377 30.7083C34.9106 30.7083 34.4839 31.1382 34.4839 31.6666V34.1666C34.4839 34.695 34.9106 35.1249 35.4377 35.1249C35.9649 35.1249 36.3916 34.695 36.3916 34.1666V31.6666C36.3916 31.1382 35.9649 30.7083 35.4377 30.7083Z" fill="#446D91" stroke="#446D91" stroke-width="0.25"/>
</g>
<defs>
<clipPath id="clip0">
<rect x="0.623352" width="49.7347" height="50" fill="white"/>
</clipPath>
</defs>
</svg>
